<?xml version="1.0" encoding="UTF-8"?>
<svg width="747px" height="747px" viewBox="0 0 747 747" version="1.1" xmlns="http://www.w3.org/2000/svg" xmlns:xlink="http://www.w3.org/1999/xlink">
    <!-- Generator: Sketch 46.2 (44496) - http://www.bohemiancoding.com/sketch -->
    <title>circle logo sq copy 3</title>
    <desc>Created with Sketch.</desc>
    <defs></defs>
    <g id="Shirt" stroke="none" stroke-width="1" fill="none" fill-rule="evenodd">
        <g id="circle-logo-sq-copy-3">
            <g id="Group-3" transform="translate(55.000000, 95.000000)">
                <path d="M285.77027,556.569232 C95.9037293,556.569232 0,420.978911 0,263.427392 C0,105.875874 168.968368,0 358.834909,0 C548.70145,0 636,105.875874 636,263.427392 C636,355.155802 580.55558,438.458055 532.864865,475.906041 C485.174149,513.354027 365.094203,556.569232 285.77027,556.569232 Z M507.8,185.836879 C505,190.269742 500.8,299.613684 500.8,305.524167 C500.8,311.43465 530.2,309.95703 530.2,304.046546 C530.2,298.136063 538.6,181.404017 534.4,181.404017 C530.2,181.404017 510.6,181.404017 507.8,185.836879 Z M83.8018432,168.105429 C81.2036864,172.538292 51.6018432,305.524167 111.801843,305.524167 C172.001843,305.524167 150.203686,166.345134 149.601843,163.672567 C149,161 131.2,196.180225 120,196.180225 C108.8,196.180225 86.4,163.672567 83.8018432,168.105429 Z M393.339697,307.326094 C397.539697,314.714198 473.139697,307.326094 477.339697,304.370853 C481.539697,301.415611 477.339697,178.773082 474.539697,172.862598 C471.739697,166.952115 445.139697,243.788398 439.539697,243.788398 C433.939697,243.788398 401.739697,175.81784 397.539697,181.728323 C393.339697,187.638807 389.139697,299.93799 393.339697,307.326094 Z M175.623157,307.326094 C179.823157,314.714198 255.423157,307.326094 259.623157,304.370853 C263.823157,301.415611 259.623157,178.773082 256.823157,172.862598 C254.023157,166.952115 227.423157,243.788398 221.823157,243.788398 C216.223157,243.788398 184.023157,175.81784 179.823157,181.728323 C175.623157,187.638807 171.423157,299.93799 175.623157,307.326094 Z M313.2,184.359259 C306.2,184.359259 279.6,302.568925 279.6,307.001788 C279.6,311.43465 299.2,307.001788 299.2,307.001788 C302,305.5 304.8,281.882234 309,280.404613 C313.2,278.926992 337,277.449371 339.8,278.926992 C342.6,280.404613 345.4,301.091305 348.2,304.046546 C351,307.001788 373.4,304.046546 373.4,302.568925 C373.4,301.091305 320.2,184.359259 313.2,184.359259 Z M340,397.951351 C340,399.794604 341.655753,401.763503 344.967309,403.858108 C348.278864,405.952713 352.376151,407 357.259292,407 C362.703714,407 367.02551,405.561726 370.22481,402.685135 C373.424109,399.808544 375.023735,395.493722 375.023735,389.740541 C375.023735,386.109892 374.336176,383.051814 372.961039,380.566216 C371.585901,378.080618 369.859989,376.265321 367.783251,375.12027 C365.706513,373.975219 363.461424,372.900005 361.047918,371.894595 C358.634411,370.889184 356.389322,370.023427 354.312584,369.297297 C352.235846,368.571168 350.509934,367.398206 349.134796,365.778378 C347.759659,364.15855 347.0721,362.14776 347.0721,359.745946 C347.0721,356.282866 348.222708,353.797305 350.523959,352.289189 C352.825209,350.781074 355.743825,350.027027 359.279893,350.027027 C361.468887,350.027027 363.419308,350.29234 365.131214,350.822973 C366.843119,351.353606 368.176141,351.884232 369.130318,352.414865 C370.084495,352.945498 370.729958,353.210811 371.066726,353.210811 C371.740263,353.210811 372.315567,352.861715 372.792656,352.163514 C373.269744,351.465312 373.508285,350.781084 373.508285,350.110811 C373.508285,348.658551 372.006882,347.443699 369.00403,346.466216 C366.001179,345.488734 362.787896,345 359.364084,345 C357.231218,345 355.196606,345.237385 353.260188,345.712162 C351.32377,346.186939 349.429476,346.95495 347.57725,348.016216 C345.725024,349.077483 344.251685,350.655395 343.157188,352.75 C342.06269,354.844605 341.51545,357.34413 341.51545,360.248649 C341.51545,362.985599 342.034627,365.345486 343.072996,367.328378 C344.111365,369.311271 345.430355,370.847292 347.030004,371.936486 C348.629654,373.025681 350.439757,373.961257 352.460367,374.743243 L358.522167,377.089189 C360.542778,377.871175 362.338849,378.76486 363.910434,379.77027 C365.538148,380.719825 366.87117,382.074316 367.909539,383.833784 C368.947908,385.593252 369.467085,387.729717 369.467085,390.243243 C369.467085,393.985604 368.372604,396.848188 366.183609,398.831081 C363.994615,400.813974 360.907618,401.805405 356.922526,401.805405 C354.509019,401.805405 352.390217,401.45631 350.566055,400.758108 C348.741893,400.059906 347.408871,399.263968 346.56695,398.37027 L344.209584,395.940541 C343.536047,395.214411 342.974775,394.851351 342.52575,394.851351 C341.908341,394.851351 341.333037,395.200447 340.799821,395.898649 C340.266604,396.59685 340,397.281078 340,397.951351 Z M384.705777,388.986486 C384.705777,395.186517 386.319435,399.72476 389.546798,402.601351 C392.774162,405.477942 397.053862,406.916216 402.386028,406.916216 C407.718194,406.916216 411.997894,405.477942 415.225258,402.601351 C418.452621,399.72476 420.066279,395.186517 420.066279,388.986486 L420.066279,347.178378 C420.066279,345.837831 419.140179,345.167568 417.287953,345.167568 C415.435727,345.167568 414.509628,345.837831 414.509628,347.178378 L414.509628,388.986486 C414.509628,393.231553 413.457243,396.429269 411.352441,398.57973 C409.247638,400.730191 406.258864,401.805405 402.386028,401.805405 C398.513192,401.805405 395.524417,400.730191 393.419615,398.57973 C391.314813,396.429269 390.262427,393.231553 390.262427,388.986486 L390.262427,347.178378 C390.262427,345.837831 389.336328,345.167568 387.484102,345.167568 C385.631876,345.167568 384.705777,345.837831 384.705777,347.178378 L384.705777,388.986486 Z M429.243171,397.951351 C429.243171,399.794604 430.898924,401.763503 434.210479,403.858108 C437.522035,405.952713 441.619322,407 446.502463,407 C451.946885,407 456.268681,405.561726 459.46798,402.685135 C462.66728,399.808544 464.266906,395.493722 464.266906,389.740541 C464.266906,386.109892 463.579347,383.051814 462.20421,380.566216 C460.829072,378.080618 459.10316,376.265321 457.026422,375.12027 C454.949684,373.975219 452.704595,372.900005 450.291088,371.894595 C447.877582,370.889184 445.632493,370.023427 443.555755,369.297297 C441.479016,368.571168 439.753104,367.398206 438.377967,365.778378 C437.002829,364.15855 436.315271,362.14776 436.315271,359.745946 C436.315271,356.282866 437.465879,353.797305 439.767129,352.289189 C442.06838,350.781074 444.986995,350.027027 448.523063,350.027027 C450.712058,350.027027 452.662478,350.29234 454.374384,350.822973 C456.08629,351.353606 457.419312,351.884232 458.373489,352.414865 C459.327666,352.945498 459.973129,353.210811 460.309897,353.210811 C460.983434,353.210811 461.558738,352.861715 462.035826,352.163514 C462.512915,351.465312 462.751455,350.781084 462.751455,350.110811 C462.751455,348.658551 461.250052,347.443699 458.247201,346.466216 C455.24435,345.488734 452.031067,345 448.607255,345 C446.474388,345 444.439777,345.237385 442.503359,345.712162 C440.566941,346.186939 438.672647,346.95495 436.820421,348.016216 C434.968195,349.077483 433.494855,350.655395 432.400358,352.75 C431.305861,354.844605 430.758621,357.34413 430.758621,360.248649 C430.758621,362.985599 431.277797,365.345486 432.316167,367.328378 C433.354536,369.311271 434.673525,370.847292 436.273175,371.936486 C437.872825,373.025681 439.682928,373.961257 441.703538,374.743243 L447.765338,377.089189 C449.785948,377.871175 451.582019,378.76486 453.153605,379.77027 C454.781319,380.719825 456.11434,382.074316 457.152709,383.833784 C458.191078,385.593252 458.710255,387.729717 458.710255,390.243243 C458.710255,393.985604 457.615774,396.848188 455.42678,398.831081 C453.237786,400.813974 450.150789,401.805405 446.165696,401.805405 C443.75219,401.805405 441.633387,401.45631 439.809225,400.758108 C437.985063,400.059906 436.652042,399.263968 435.810121,398.37027 L433.452754,395.940541 C432.779217,395.214411 432.217945,394.851351 431.768921,394.851351 C431.151512,394.851351 430.576208,395.200447 430.042991,395.898649 C429.509775,396.59685 429.243171,397.281078 429.243171,397.951351 Z M474.201523,404.235135 C474.201523,404.905409 474.468127,405.436034 475.001343,405.827027 C475.53456,406.21802 476.194055,406.413514 476.979848,406.413514 C477.709513,406.413514 478.354976,406.21802 478.916256,405.827027 C479.477537,405.436034 479.758173,404.905409 479.758173,404.235135 L479.758173,377.005405 L504.089566,377.005405 L504.089566,404.235135 C504.089566,404.905409 504.35617,405.436034 504.889386,405.827027 C505.422603,406.21802 506.082098,406.413514 506.867891,406.413514 C507.597556,406.413514 508.243019,406.21802 508.804299,405.827027 C509.36558,405.436034 509.646216,404.905409 509.646216,404.235135 L509.646216,347.178378 C509.646216,345.837831 508.720117,345.167568 506.867891,345.167568 C505.015665,345.167568 504.089566,345.837831 504.089566,347.178378 L504.089566,372.22973 L479.758173,372.22973 L479.758173,347.178378 C479.758173,345.837831 478.832074,345.167568 476.979848,345.167568 C475.127622,345.167568 474.201523,345.837831 474.201523,347.178378 L474.201523,404.235135 Z M522.44335,404.235135 C522.44335,404.905409 522.709954,405.436034 523.243171,405.827027 C523.776387,406.21802 524.435882,406.413514 525.221675,406.413514 C525.95134,406.413514 526.596803,406.21802 527.158083,405.827027 C527.719364,405.436034 528,404.905409 528,404.235135 L528,347.178378 C528,345.837831 527.073901,345.167568 525.221675,345.167568 C523.369449,345.167568 522.44335,345.837831 522.44335,347.178378 L522.44335,404.235135 Z" id="Combined-Shape" fill="#3E505A"></path>
                <g id="Group-2" transform="translate(74.000000, 163.000000)">
                    <g id="Group"></g>
                </g>
            </g>
        </g>
    </g>
</svg>